<svg width="20" height="20" viewBox="0 0 20 20" fill="none" xmlns="http://www.w3.org/2000/svg">
<g id="Frame" clip-path="url(#clip0_1264_45579)">
<path id="Vector" d="M10.2836 17.8597C5.83101 17.8597 2.22168 14.2504 2.22168 9.79778C2.22168 5.34517 5.83101 1.73584 10.2836 1.73584C14.7362 1.73584 18.3456 5.34517 18.3456 9.79778C18.3456 14.2504 14.7362 17.8597 10.2836 17.8597ZM10.2836 16.2473C11.9941 16.2473 13.6346 15.5678 14.8441 14.3583C16.0537 13.1488 16.7332 11.5083 16.7332 9.79778C16.7332 8.08725 16.0537 6.44678 14.8441 5.23726C13.6346 4.02773 11.9941 3.34823 10.2836 3.34823C8.57309 3.34823 6.93262 4.02773 5.7231 5.23726C4.51357 6.44678 3.83407 8.08725 3.83407 9.79778C3.83407 11.5083 4.51357 13.1488 5.7231 14.3583C6.93262 15.5678 8.57309 16.2473 10.2836 16.2473ZM9.47742 10.4363C9.05304 10.2511 8.70538 9.92538 8.49289 9.51397C8.2804 9.10257 8.21604 8.63055 8.31065 8.17728C8.40525 7.72401 8.65304 7.31713 9.01235 7.02507C9.37166 6.73301 9.82058 6.57358 10.2836 6.57358C10.7467 6.57358 11.1956 6.73301 11.5549 7.02507C11.9142 7.31713 12.162 7.72401 12.2566 8.17728C12.3512 8.63055 12.2868 9.10257 12.0743 9.51397C11.8619 9.92538 11.5142 10.2511 11.0898 10.4363V13.0226H9.47742V10.4363Z" fill="#C4C4C4"/>
</g>
<defs>
<clipPath id="clip0_1264_45579">
<rect width="19.3487" height="19.3487" fill="white" transform="translate(0.609375 0.123535)"/>
</clipPath>
</defs>
</svg>
